solid nut_m45
  facet normal 0 0 0
    outer loop
      vertex 0.03750000 0.02165064 0.01800000
      vertex 0.00000000 0.04330127 0.01800000
      vertex 0.01688750 0.00975000 0.01800000
    endloop
  endfacet
  facet normal 0 0 0
    outer loop
      vertex 0.03750000 0.02165064 0.01800000
      vertex 0.01688750 0.00975000 0.01800000
      vertex 0.01950000 0.00000000 0.01800000
    endloop
  endfacet
  facet normal 0 0 0
    outer loop
      vertex 0.00000000 0.04330127 -0.01800000
      vertex 0.03750000 0.02165064 -0.01800000
      vertex 0.01950000 0.00000000 -0.01800000
    endloop
  endfacet
  facet normal 0 0 0
    outer loop
      vertex 0.00000000 0.04330127 -0.01800000
      vertex 0.01950000 0.00000000 -0.01800000
      vertex 0.01688750 0.00975000 -0.01800000
    endloop
  endfacet
  facet normal 0 0 0
    outer loop
      vertex 0.03750000 0.02165064 -0.01800000
      vertex 0.00000000 0.04330127 -0.01800000
      vertex 0.00000000 0.04330127 0.01800000
    endloop
  endfacet
  facet normal 0 0 0
    outer loop
      vertex 0.03750000 0.02165064 -0.01800000
      vertex 0.00000000 0.04330127 0.01800000
      vertex 0.03750000 0.02165064 0.01800000
    endloop
  endfacet
  facet normal 0 0 0
    outer loop
      vertex 0.00000000 0.04330127 0.01800000
      vertex -0.03750000 0.02165064 0.01800000
      vertex 0.00000000 0.01950000 0.01800000
    endloop
  endfacet
  facet normal 0 0 0
    outer loop
      vertex 0.00000000 0.04330127 0.01800000
      vertex 0.00000000 0.01950000 0.01800000
      vertex 0.00975000 0.01688750 0.01800000
    endloop
  endfacet
  facet normal 0 0 0
    outer loop
      vertex -0.03750000 0.02165064 -0.01800000
      vertex 0.00000000 0.04330127 -0.01800000
      vertex 0.00975000 0.01688750 -0.01800000
    endloop
  endfacet
  facet normal 0 0 0
    outer loop
      vertex -0.03750000 0.02165064 -0.01800000
      vertex 0.00975000 0.01688750 -0.01800000
      vertex 0.00000000 0.01950000 -0.01800000
    endloop
  endfacet
  facet normal 0 0 0
    outer loop
      vertex 0.00000000 0.04330127 -0.01800000
      vertex -0.03750000 0.02165064 -0.01800000
      vertex -0.03750000 0.02165064 0.01800000
    endloop
  endfacet
  facet normal 0 0 0
    outer loop
      vertex 0.00000000 0.04330127 -0.01800000
      vertex -0.03750000 0.02165064 0.01800000
      vertex 0.00000000 0.04330127 0.01800000
    endloop
  endfacet
  facet normal 0 0 0
    outer loop
      vertex -0.03750000 0.02165064 0.01800000
      vertex -0.03750000 -0.02165064 0.01800000
      vertex -0.01688750 0.00975000 0.01800000
    endloop
  endfacet
  facet normal 0 0 0
    outer loop
      vertex -0.03750000 0.02165064 0.01800000
      vertex -0.01688750 0.00975000 0.01800000
      vertex -0.00975000 0.01688750 0.01800000
    endloop
  endfacet
  facet normal 0 0 0
    outer loop
      vertex -0.03750000 -0.02165064 -0.01800000
      vertex -0.03750000 0.02165064 -0.01800000
      vertex -0.00975000 0.01688750 -0.01800000
    endloop
  endfacet
  facet normal 0 0 0
    outer loop
      vertex -0.03750000 -0.02165064 -0.01800000
      vertex -0.00975000 0.01688750 -0.01800000
      vertex -0.01688750 0.00975000 -0.01800000
    endloop
  endfacet
  facet normal 0 0 0
    outer loop
      vertex -0.03750000 0.02165064 -0.01800000
      vertex -0.03750000 -0.02165064 -0.01800000
      vertex -0.03750000 -0.02165064 0.01800000
    endloop
  endfacet
  facet normal 0 0 0
    outer loop
      vertex -0.03750000 0.02165064 -0.01800000
      vertex -0.03750000 -0.02165064 0.01800000
      vertex -0.03750000 0.02165064 0.01800000
    endloop
  endfacet
  facet normal 0 0 0
    outer loop
      vertex -0.03750000 -0.02165064 0.01800000
      vertex -0.00000000 -0.04330127 0.01800000
      vertex -0.01688750 -0.00975000 0.01800000
    endloop
  endfacet
  facet normal 0 0 0
    outer loop
      vertex -0.03750000 -0.02165064 0.01800000
      vertex -0.01688750 -0.00975000 0.01800000
      vertex -0.01950000 0.00000000 0.01800000
    endloop
  endfacet
  facet normal 0 0 0
    outer loop
      vertex -0.00000000 -0.04330127 -0.01800000
      vertex -0.03750000 -0.02165064 -0.01800000
      vertex -0.01950000 0.00000000 -0.01800000
    endloop
  endfacet
  facet normal 0 0 0
    outer loop
      vertex -0.00000000 -0.04330127 -0.01800000
      vertex -0.01950000 0.00000000 -0.01800000
      vertex -0.01688750 -0.00975000 -0.01800000
    endloop
  endfacet
  facet normal 0 0 0
    outer loop
      vertex -0.03750000 -0.02165064 -0.01800000
      vertex -0.00000000 -0.04330127 -0.01800000
      vertex -0.00000000 -0.04330127 0.01800000
    endloop
  endfacet
  facet normal 0 0 0
    outer loop
      vertex -0.03750000 -0.02165064 -0.01800000
      vertex -0.00000000 -0.04330127 0.01800000
      vertex -0.03750000 -0.02165064 0.01800000
    endloop
  endfacet
  facet normal 0 0 0
    outer loop
      vertex -0.00000000 -0.04330127 0.01800000
      vertex 0.03750000 -0.02165064 0.01800000
      vertex -0.00000000 -0.01950000 0.01800000
    endloop
  endfacet
  facet normal 0 0 0
    outer loop
      vertex -0.00000000 -0.04330127 0.01800000
      vertex -0.00000000 -0.01950000 0.01800000
      vertex -0.00975000 -0.01688750 0.01800000
    endloop
  endfacet
  facet normal 0 0 0
    outer loop
      vertex 0.03750000 -0.02165064 -0.01800000
      vertex -0.00000000 -0.04330127 -0.01800000
      vertex -0.00975000 -0.01688750 -0.01800000
    endloop
  endfacet
  facet normal 0 0 0
    outer loop
      vertex 0.03750000 -0.02165064 -0.01800000
      vertex -0.00975000 -0.01688750 -0.01800000
      vertex -0.00000000 -0.01950000 -0.01800000
    endloop
  endfacet
  facet normal 0 0 0
    outer loop
      vertex -0.00000000 -0.04330127 -0.01800000
      vertex 0.03750000 -0.02165064 -0.01800000
      vertex 0.03750000 -0.02165064 0.01800000
    endloop
  endfacet
  facet normal 0 0 0
    outer loop
      vertex -0.00000000 -0.04330127 -0.01800000
      vertex 0.03750000 -0.02165064 0.01800000
      vertex -0.00000000 -0.04330127 0.01800000
    endloop
  endfacet
  facet normal 0 0 0
    outer loop
      vertex 0.03750000 -0.02165064 0.01800000
      vertex 0.03750000 0.02165064 0.01800000
      vertex 0.01688750 -0.00975000 0.01800000
    endloop
  endfacet
  facet normal 0 0 0
    outer loop
      vertex 0.03750000 -0.02165064 0.01800000
      vertex 0.01688750 -0.00975000 0.01800000
      vertex 0.00975000 -0.01688750 0.01800000
    endloop
  endfacet
  facet normal 0 0 0
    outer loop
      vertex 0.03750000 0.02165064 -0.01800000
      vertex 0.03750000 -0.02165064 -0.01800000
      vertex 0.00975000 -0.01688750 -0.01800000
    endloop
  endfacet
  facet normal 0 0 0
    outer loop
      vertex 0.03750000 0.02165064 -0.01800000
      vertex 0.00975000 -0.01688750 -0.01800000
      vertex 0.01688750 -0.00975000 -0.01800000
    endloop
  endfacet
  facet normal 0 0 0
    outer loop
      vertex 0.03750000 -0.02165064 -0.01800000
      vertex 0.03750000 0.02165064 -0.01800000
      vertex 0.03750000 0.02165064 0.01800000
    endloop
  endfacet
  facet normal 0 0 0
    outer loop
      vertex 0.03750000 -0.02165064 -0.01800000
      vertex 0.03750000 0.02165064 0.01800000
      vertex 0.03750000 -0.02165064 0.01800000
    endloop
  endfacet
  facet normal 0 0 0
    outer loop
      vertex 0.01950000 0.00000000 -0.01800000
      vertex 0.01688750 0.00975000 0.01800000
      vertex 0.01688750 0.00975000 -0.01800000
    endloop
  endfacet
  facet normal 0 0 0
    outer loop
      vertex 0.01950000 0.00000000 -0.01800000
      vertex 0.01950000 0.00000000 0.01800000
      vertex 0.01688750 0.00975000 0.01800000
    endloop
  endfacet
  facet normal 0 0 0
    outer loop
      vertex 0.01688750 0.00975000 -0.01800000
      vertex 0.00975000 0.01688750 0.01800000
      vertex 0.00975000 0.01688750 -0.01800000
    endloop
  endfacet
  facet normal 0 0 0
    outer loop
      vertex 0.01688750 0.00975000 -0.01800000
      vertex 0.01688750 0.00975000 0.01800000
      vertex 0.00975000 0.01688750 0.01800000
    endloop
  endfacet
  facet normal 0 0 0
    outer loop
      vertex 0.00975000 0.01688750 -0.01800000
      vertex 0.00000000 0.01950000 0.01800000
      vertex 0.00000000 0.01950000 -0.01800000
    endloop
  endfacet
  facet normal 0 0 0
    outer loop
      vertex 0.00975000 0.01688750 -0.01800000
      vertex 0.00975000 0.01688750 0.01800000
      vertex 0.00000000 0.01950000 0.01800000
    endloop
  endfacet
  facet normal 0 0 0
    outer loop
      vertex 0.00000000 0.01950000 -0.01800000
      vertex -0.00975000 0.01688750 0.01800000
      vertex -0.00975000 0.01688750 -0.01800000
    endloop
  endfacet
  facet normal 0 0 0
    outer loop
      vertex 0.00000000 0.01950000 -0.01800000
      vertex 0.00000000 0.01950000 0.01800000
      vertex -0.00975000 0.01688750 0.01800000
    endloop
  endfacet
  facet normal 0 0 0
    outer loop
      vertex -0.00975000 0.01688750 -0.01800000
      vertex -0.01688750 0.00975000 0.01800000
      vertex -0.01688750 0.00975000 -0.01800000
    endloop
  endfacet
  facet normal 0 0 0
    outer loop
      vertex -0.00975000 0.01688750 -0.01800000
      vertex -0.00975000 0.01688750 0.01800000
      vertex -0.01688750 0.00975000 0.01800000
    endloop
  endfacet
  facet normal 0 0 0
    outer loop
      vertex -0.01688750 0.00975000 -0.01800000
      vertex -0.01950000 0.00000000 0.01800000
      vertex -0.01950000 0.00000000 -0.01800000
    endloop
  endfacet
  facet normal 0 0 0
    outer loop
      vertex -0.01688750 0.00975000 -0.01800000
      vertex -0.01688750 0.00975000 0.01800000
      vertex -0.01950000 0.00000000 0.01800000
    endloop
  endfacet
  facet normal 0 0 0
    outer loop
      vertex -0.01950000 0.00000000 -0.01800000
      vertex -0.01688750 -0.00975000 0.01800000
      vertex -0.01688750 -0.00975000 -0.01800000
    endloop
  endfacet
  facet normal 0 0 0
    outer loop
      vertex -0.01950000 0.00000000 -0.01800000
      vertex -0.01950000 0.00000000 0.01800000
      vertex -0.01688750 -0.00975000 0.01800000
    endloop
  endfacet
  facet normal 0 0 0
    outer loop
      vertex -0.01688750 -0.00975000 -0.01800000
      vertex -0.00975000 -0.01688750 0.01800000
      vertex -0.00975000 -0.01688750 -0.01800000
    endloop
  endfacet
  facet normal 0 0 0
    outer loop
      vertex -0.01688750 -0.00975000 -0.01800000
      vertex -0.01688750 -0.00975000 0.01800000
      vertex -0.00975000 -0.01688750 0.01800000
    endloop
  endfacet
  facet normal 0 0 0
    outer loop
      vertex -0.00975000 -0.01688750 -0.01800000
      vertex -0.00000000 -0.01950000 0.01800000
      vertex -0.00000000 -0.01950000 -0.01800000
    endloop
  endfacet
  facet normal 0 0 0
    outer loop
      vertex -0.00975000 -0.01688750 -0.01800000
      vertex -0.00975000 -0.01688750 0.01800000
      vertex -0.00000000 -0.01950000 0.01800000
    endloop
  endfacet
  facet normal 0 0 0
    outer loop
      vertex -0.00000000 -0.01950000 -0.01800000
      vertex 0.00975000 -0.01688750 0.01800000
      vertex 0.00975000 -0.01688750 -0.01800000
    endloop
  endfacet
  facet normal 0 0 0
    outer loop
      vertex -0.00000000 -0.01950000 -0.01800000
      vertex -0.00000000 -0.01950000 0.01800000
      vertex 0.00975000 -0.01688750 0.01800000
    endloop
  endfacet
  facet normal 0 0 0
    outer loop
      vertex 0.00975000 -0.01688750 -0.01800000
      vertex 0.01688750 -0.00975000 0.01800000
      vertex 0.01688750 -0.00975000 -0.01800000
    endloop
  endfacet
  facet normal 0 0 0
    outer loop
      vertex 0.00975000 -0.01688750 -0.01800000
      vertex 0.00975000 -0.01688750 0.01800000
      vertex 0.01688750 -0.00975000 0.01800000
    endloop
  endfacet
  facet normal 0 0 0
    outer loop
      vertex 0.01688750 -0.00975000 -0.01800000
      vertex 0.01950000 0.00000000 0.01800000
      vertex 0.01950000 0.00000000 -0.01800000
    endloop
  endfacet
  facet normal 0 0 0
    outer loop
      vertex 0.01688750 -0.00975000 -0.01800000
      vertex 0.01688750 -0.00975000 0.01800000
      vertex 0.01950000 0.00000000 0.01800000
    endloop
  endfacet
endsolid
