solid nut_m33
  facet normal 0 0 0
    outer loop
      vertex 0.02750000 0.01587713 0.01350000
      vertex 0.00000000 0.03175426 0.01350000
      vertex 0.01255737 0.00725000 0.01350000
    endloop
  endfacet
  facet normal 0 0 0
    outer loop
      vertex 0.02750000 0.01587713 0.01350000
      vertex 0.01255737 0.00725000 0.01350000
      vertex 0.01450000 0.00000000 0.01350000
    endloop
  endfacet
  facet normal 0 0 0
    outer loop
      vertex 0.00000000 0.03175426 -0.01350000
      vertex 0.02750000 0.01587713 -0.01350000
      vertex 0.01450000 0.00000000 -0.01350000
    endloop
  endfacet
  facet normal 0 0 0
    outer loop
      vertex 0.00000000 0.03175426 -0.01350000
      vertex 0.01450000 0.00000000 -0.01350000
      vertex 0.01255737 0.00725000 -0.01350000
    endloop
  endfacet
  facet normal 0 0 0
    outer loop
      vertex 0.02750000 0.01587713 -0.01350000
      vertex 0.00000000 0.03175426 -0.01350000
      vertex 0.00000000 0.03175426 0.01350000
    endloop
  endfacet
  facet normal 0 0 0
    outer loop
      vertex 0.02750000 0.01587713 -0.01350000
      vertex 0.00000000 0.03175426 0.01350000
      vertex 0.02750000 0.01587713 0.01350000
    endloop
  endfacet
  facet normal 0 0 0
    outer loop
      vertex 0.00000000 0.03175426 0.01350000
      vertex -0.02750000 0.01587713 0.01350000
      vertex 0.00000000 0.01450000 0.01350000
    endloop
  endfacet
  facet normal 0 0 0
    outer loop
      vertex 0.00000000 0.03175426 0.01350000
      vertex 0.00000000 0.01450000 0.01350000
      vertex 0.00725000 0.01255737 0.01350000
    endloop
  endfacet
  facet normal 0 0 0
    outer loop
      vertex -0.02750000 0.01587713 -0.01350000
      vertex 0.00000000 0.03175426 -0.01350000
      vertex 0.00725000 0.01255737 -0.01350000
    endloop
  endfacet
  facet normal 0 0 0
    outer loop
      vertex -0.02750000 0.01587713 -0.01350000
      vertex 0.00725000 0.01255737 -0.01350000
      vertex 0.00000000 0.01450000 -0.01350000
    endloop
  endfacet
  facet normal 0 0 0
    outer loop
      vertex 0.00000000 0.03175426 -0.01350000
      vertex -0.02750000 0.01587713 -0.01350000
      vertex -0.02750000 0.01587713 0.01350000
    endloop
  endfacet
  facet normal 0 0 0
    outer loop
      vertex 0.00000000 0.03175426 -0.01350000
      vertex -0.02750000 0.01587713 0.01350000
      vertex 0.00000000 0.03175426 0.01350000
    endloop
  endfacet
  facet normal 0 0 0
    outer loop
      vertex -0.02750000 0.01587713 0.01350000
      vertex -0.02750000 -0.01587713 0.01350000
      vertex -0.01255737 0.00725000 0.01350000
    endloop
  endfacet
  facet normal 0 0 0
    outer loop
      vertex -0.02750000 0.01587713 0.01350000
      vertex -0.01255737 0.00725000 0.01350000
      vertex -0.00725000 0.01255737 0.01350000
    endloop
  endfacet
  facet normal 0 0 0
    outer loop
      vertex -0.02750000 -0.01587713 -0.01350000
      vertex -0.02750000 0.01587713 -0.01350000
      vertex -0.00725000 0.01255737 -0.01350000
    endloop
  endfacet
  facet normal 0 0 0
    outer loop
      vertex -0.02750000 -0.01587713 -0.01350000
      vertex -0.00725000 0.01255737 -0.01350000
      vertex -0.01255737 0.00725000 -0.01350000
    endloop
  endfacet
  facet normal 0 0 0
    outer loop
      vertex -0.02750000 0.01587713 -0.01350000
      vertex -0.02750000 -0.01587713 -0.01350000
      vertex -0.02750000 -0.01587713 0.01350000
    endloop
  endfacet
  facet normal 0 0 0
    outer loop
      vertex -0.02750000 0.01587713 -0.01350000
      vertex -0.02750000 -0.01587713 0.01350000
      vertex -0.02750000 0.01587713 0.01350000
    endloop
  endfacet
  facet normal 0 0 0
    outer loop
      vertex -0.02750000 -0.01587713 0.01350000
      vertex -0.00000000 -0.03175426 0.01350000
      vertex -0.01255737 -0.00725000 0.01350000
    endloop
  endfacet
  facet normal 0 0 0
    outer loop
      vertex -0.02750000 -0.01587713 0.01350000
      vertex -0.01255737 -0.00725000 0.01350000
      vertex -0.01450000 0.00000000 0.01350000
    endloop
  endfacet
  facet normal 0 0 0
    outer loop
      vertex -0.00000000 -0.03175426 -0.01350000
      vertex -0.02750000 -0.01587713 -0.01350000
      vertex -0.01450000 0.00000000 -0.01350000
    endloop
  endfacet
  facet normal 0 0 0
    outer loop
      vertex -0.00000000 -0.03175426 -0.01350000
      vertex -0.01450000 0.00000000 -0.01350000
      vertex -0.01255737 -0.00725000 -0.01350000
    endloop
  endfacet
  facet normal 0 0 0
    outer loop
      vertex -0.02750000 -0.01587713 -0.01350000
      vertex -0.00000000 -0.03175426 -0.01350000
      vertex -0.00000000 -0.03175426 0.01350000
    endloop
  endfacet
  facet normal 0 0 0
    outer loop
      vertex -0.02750000 -0.01587713 -0.01350000
      vertex -0.00000000 -0.03175426 0.01350000
      vertex -0.02750000 -0.01587713 0.01350000
    endloop
  endfacet
  facet normal 0 0 0
    outer loop
      vertex -0.00000000 -0.03175426 0.01350000
      vertex 0.02750000 -0.01587713 0.01350000
      vertex -0.00000000 -0.01450000 0.01350000
    endloop
  endfacet
  facet normal 0 0 0
    outer loop
      vertex -0.00000000 -0.03175426 0.01350000
      vertex -0.00000000 -0.01450000 0.01350000
      vertex -0.00725000 -0.01255737 0.01350000
    endloop
  endfacet
  facet normal 0 0 0
    outer loop
      vertex 0.02750000 -0.01587713 -0.01350000
      vertex -0.00000000 -0.03175426 -0.01350000
      vertex -0.00725000 -0.01255737 -0.01350000
    endloop
  endfacet
  facet normal 0 0 0
    outer loop
      vertex 0.02750000 -0.01587713 -0.01350000
      vertex -0.00725000 -0.01255737 -0.01350000
      vertex -0.00000000 -0.01450000 -0.01350000
    endloop
  endfacet
  facet normal 0 0 0
    outer loop
      vertex -0.00000000 -0.03175426 -0.01350000
      vertex 0.02750000 -0.01587713 -0.01350000
      vertex 0.02750000 -0.01587713 0.01350000
    endloop
  endfacet
  facet normal 0 0 0
    outer loop
      vertex -0.00000000 -0.03175426 -0.01350000
      vertex 0.02750000 -0.01587713 0.01350000
      vertex -0.00000000 -0.03175426 0.01350000
    endloop
  endfacet
  facet normal 0 0 0
    outer loop
      vertex 0.02750000 -0.01587713 0.01350000
      vertex 0.02750000 0.01587713 0.01350000
      vertex 0.01255737 -0.00725000 0.01350000
    endloop
  endfacet
  facet normal 0 0 0
    outer loop
      vertex 0.02750000 -0.01587713 0.01350000
      vertex 0.01255737 -0.00725000 0.01350000
      vertex 0.00725000 -0.01255737 0.01350000
    endloop
  endfacet
  facet normal 0 0 0
    outer loop
      vertex 0.02750000 0.01587713 -0.01350000
      vertex 0.02750000 -0.01587713 -0.01350000
      vertex 0.00725000 -0.01255737 -0.01350000
    endloop
  endfacet
  facet normal 0 0 0
    outer loop
      vertex 0.02750000 0.01587713 -0.01350000
      vertex 0.00725000 -0.01255737 -0.01350000
      vertex 0.01255737 -0.00725000 -0.01350000
    endloop
  endfacet
  facet normal 0 0 0
    outer loop
      vertex 0.02750000 -0.01587713 -0.01350000
      vertex 0.02750000 0.01587713 -0.01350000
      vertex 0.02750000 0.01587713 0.01350000
    endloop
  endfacet
  facet normal 0 0 0
    outer loop
      vertex 0.02750000 -0.01587713 -0.01350000
      vertex 0.02750000 0.01587713 0.01350000
      vertex 0.02750000 -0.01587713 0.01350000
    endloop
  endfacet
  facet normal 0 0 0
    outer loop
      vertex 0.01450000 0.00000000 -0.01350000
      vertex 0.01255737 0.00725000 0.01350000
      vertex 0.01255737 0.00725000 -0.01350000
    endloop
  endfacet
  facet normal 0 0 0
    outer loop
      vertex 0.01450000 0.00000000 -0.01350000
      vertex 0.01450000 0.00000000 0.01350000
      vertex 0.01255737 0.00725000 0.01350000
    endloop
  endfacet
  facet normal 0 0 0
    outer loop
      vertex 0.01255737 0.00725000 -0.01350000
      vertex 0.00725000 0.01255737 0.01350000
      vertex 0.00725000 0.01255737 -0.01350000
    endloop
  endfacet
  facet normal 0 0 0
    outer loop
      vertex 0.01255737 0.00725000 -0.01350000
      vertex 0.01255737 0.00725000 0.01350000
      vertex 0.00725000 0.01255737 0.01350000
    endloop
  endfacet
  facet normal 0 0 0
    outer loop
      vertex 0.00725000 0.01255737 -0.01350000
      vertex 0.00000000 0.01450000 0.01350000
      vertex 0.00000000 0.01450000 -0.01350000
    endloop
  endfacet
  facet normal 0 0 0
    outer loop
      vertex 0.00725000 0.01255737 -0.01350000
      vertex 0.00725000 0.01255737 0.01350000
      vertex 0.00000000 0.01450000 0.01350000
    endloop
  endfacet
  facet normal 0 0 0
    outer loop
      vertex 0.00000000 0.01450000 -0.01350000
      vertex -0.00725000 0.01255737 0.01350000
      vertex -0.00725000 0.01255737 -0.01350000
    endloop
  endfacet
  facet normal 0 0 0
    outer loop
      vertex 0.00000000 0.01450000 -0.01350000
      vertex 0.00000000 0.01450000 0.01350000
      vertex -0.00725000 0.01255737 0.01350000
    endloop
  endfacet
  facet normal 0 0 0
    outer loop
      vertex -0.00725000 0.01255737 -0.01350000
      vertex -0.01255737 0.00725000 0.01350000
      vertex -0.01255737 0.00725000 -0.01350000
    endloop
  endfacet
  facet normal 0 0 0
    outer loop
      vertex -0.00725000 0.01255737 -0.01350000
      vertex -0.00725000 0.01255737 0.01350000
      vertex -0.01255737 0.00725000 0.01350000
    endloop
  endfacet
  facet normal 0 0 0
    outer loop
      vertex -0.01255737 0.00725000 -0.01350000
      vertex -0.01450000 0.00000000 0.01350000
      vertex -0.01450000 0.00000000 -0.01350000
    endloop
  endfacet
  facet normal 0 0 0
    outer loop
      vertex -0.01255737 0.00725000 -0.01350000
      vertex -0.01255737 0.00725000 0.01350000
      vertex -0.01450000 0.00000000 0.01350000
    endloop
  endfacet
  facet normal 0 0 0
    outer loop
      vertex -0.01450000 0.00000000 -0.01350000
      vertex -0.01255737 -0.00725000 0.01350000
      vertex -0.01255737 -0.00725000 -0.01350000
    endloop
  endfacet
  facet normal 0 0 0
    outer loop
      vertex -0.01450000 0.00000000 -0.01350000
      vertex -0.01450000 0.00000000 0.01350000
      vertex -0.01255737 -0.00725000 0.01350000
    endloop
  endfacet
  facet normal 0 0 0
    outer loop
      vertex -0.01255737 -0.00725000 -0.01350000
      vertex -0.00725000 -0.01255737 0.01350000
      vertex -0.00725000 -0.01255737 -0.01350000
    endloop
  endfacet
  facet normal 0 0 0
    outer loop
      vertex -0.01255737 -0.00725000 -0.01350000
      vertex -0.01255737 -0.00725000 0.01350000
      vertex -0.00725000 -0.01255737 0.01350000
    endloop
  endfacet
  facet normal 0 0 0
    outer loop
      vertex -0.00725000 -0.01255737 -0.01350000
      vertex -0.00000000 -0.01450000 0.01350000
      vertex -0.00000000 -0.01450000 -0.01350000
    endloop
  endfacet
  facet normal 0 0 0
    outer loop
      vertex -0.00725000 -0.01255737 -0.01350000
      vertex -0.00725000 -0.01255737 0.01350000
      vertex -0.00000000 -0.01450000 0.01350000
    endloop
  endfacet
  facet normal 0 0 0
    outer loop
      vertex -0.00000000 -0.01450000 -0.01350000
      vertex 0.00725000 -0.01255737 0.01350000
      vertex 0.00725000 -0.01255737 -0.01350000
    endloop
  endfacet
  facet normal 0 0 0
    outer loop
      vertex -0.00000000 -0.01450000 -0.01350000
      vertex -0.00000000 -0.01450000 0.01350000
      vertex 0.00725000 -0.01255737 0.01350000
    endloop
  endfacet
  facet normal 0 0 0
    outer loop
      vertex 0.00725000 -0.01255737 -0.01350000
      vertex 0.01255737 -0.00725000 0.01350000
      vertex 0.01255737 -0.00725000 -0.01350000
    endloop
  endfacet
  facet normal 0 0 0
    outer loop
      vertex 0.00725000 -0.01255737 -0.01350000
      vertex 0.00725000 -0.01255737 0.01350000
      vertex 0.01255737 -0.00725000 0.01350000
    endloop
  endfacet
  facet normal 0 0 0
    outer loop
      vertex 0.01255737 -0.00725000 -0.01350000
      vertex 0.01450000 0.00000000 0.01350000
      vertex 0.01450000 0.00000000 -0.01350000
    endloop
  endfacet
  facet normal 0 0 0
    outer loop
      vertex 0.01255737 -0.00725000 -0.01350000
      vertex 0.01255737 -0.00725000 0.01350000
      vertex 0.01450000 0.00000000 0.01350000
    endloop
  endfacet
endsolid
